<svg width="20" height="20" viewBox="0 0 20 20" fill="none" xmlns="http://www.w3.org/2000/svg">
<g id="Group 503">
<path id="Exclude" fill-rule="evenodd" clip-rule="evenodd" d="M9.9987 19.1663C15.0613 19.1663 19.1654 15.0623 19.1654 9.99967C19.1654 4.93706 15.0613 0.833008 9.9987 0.833008C4.93609 0.833008 0.832031 4.93706 0.832031 9.99967C0.832031 15.0623 4.93609 19.1663 9.9987 19.1663ZM13.1412 10.833H9.9987V14.1663C10.8066 14.1663 11.6044 14.2837 12.3684 14.5104C12.7795 13.4773 13.06 12.2202 13.1412 10.833ZM11.9374 15.4272C11.3099 15.2552 10.6581 15.1663 9.9987 15.1663V17.2754C10.6298 17.1033 11.3245 16.5345 11.9374 15.4272ZM8.9987 14.2265V10.833H6.0229C6.11077 12.3357 6.43256 13.6856 6.90099 14.7635C7.57199 14.4948 8.27707 14.3138 8.9987 14.2265ZM7.35994 15.6575C7.88675 15.4544 8.43661 15.3122 8.9987 15.2348V17.2212C8.45962 17.0173 7.88454 16.5242 7.35994 15.6575ZM5.99623 15.1904C5.46134 13.9705 5.11081 12.4716 5.02133 10.833H2.71147C2.92832 12.7517 3.8856 14.4461 5.29075 15.6236C5.51918 15.4672 5.75466 15.3227 5.99623 15.1904ZM6.16079 16.2508C6.25576 16.1925 6.35195 16.1364 6.44927 16.0825C6.5539 16.2607 6.66312 16.4301 6.77659 16.59C6.56542 16.4866 6.35996 16.3733 6.16079 16.2508ZM12.8932 15.7617C13.218 15.9013 13.5331 16.0645 13.8359 16.2504C13.2781 16.5937 12.6708 16.8644 12.0272 17.0493C12.3443 16.685 12.635 16.252 12.8932 15.7617ZM14.7059 15.6232C14.2642 15.3207 13.7961 15.0628 13.3087 14.8519C13.7641 13.6976 14.0614 12.323 14.1427 10.833H17.2846C17.0678 12.7515 16.1108 14.4457 14.7059 15.6232ZM13.1644 9.83301H9.9987V5.83301L10.0173 5.83299C10.819 5.83119 11.6104 5.71383 12.3684 5.48899C12.8445 6.68521 13.1454 8.18176 13.1644 9.83301ZM8.9987 9.83301V5.7728C8.27718 5.6856 7.57209 5.50458 6.90099 5.23587C6.36426 6.47097 6.02005 8.06313 5.99966 9.83301H8.9987ZM7.35994 4.3418C7.88682 4.545 8.43668 4.68716 8.9987 4.76452V2.77815C8.45962 2.98204 7.88454 3.47514 7.35994 4.3418ZM9.9987 2.7239V4.83301L10.0151 4.83299C10.6691 4.83153 11.3152 4.74267 11.9374 4.57211C11.3245 3.46481 10.6298 2.89603 9.9987 2.7239ZM12.0287 2.95179C12.3452 3.31571 12.6354 3.74814 12.8932 4.23762C13.2176 4.09823 13.5324 3.93525 13.8349 3.7496C13.2778 3.4069 12.6714 3.13659 12.0287 2.95179ZM14.7051 4.37678C14.2636 4.67891 13.7958 4.93661 13.3087 5.14744C13.8313 6.47201 14.1456 8.08667 14.1645 9.83301H17.3295C17.2805 7.64232 16.2708 5.68869 14.7051 4.37678ZM5.29161 4.37629C5.51978 4.53249 5.75498 4.6768 5.99623 4.80891C5.38958 6.19246 5.02008 7.93496 4.9996 9.83301H2.66658C2.71563 7.64205 3.72559 5.6882 5.29161 4.37629ZM6.77517 3.41131C6.56488 3.51437 6.36024 3.62719 6.16185 3.7492C6.25648 3.8073 6.35231 3.86317 6.44927 3.9168C6.55346 3.73934 6.66222 3.57063 6.77517 3.41131ZM1.66636 9.83301C1.74885 5.64448 4.92165 2.21356 8.9987 1.7263V1.66634H9.58203H9.9987V1.66699C14.6008 1.66734 18.3314 5.39817 18.3314 10.0003C18.3314 14.6027 14.6004 18.3337 9.99805 18.3337C9.90576 18.3337 9.81382 18.3322 9.72225 18.3292C9.67568 18.3317 9.62894 18.333 9.58203 18.333C9.41268 18.333 9.24547 18.3163 9.08088 18.2838C5.18311 17.857 2.09363 14.7423 1.70579 10.833H1.66536V10.1056C1.66493 10.0705 1.66471 10.0355 1.66471 10.0003C1.66471 9.96519 1.66493 9.93011 1.66536 9.89507V9.83301H1.66636Z" fill="white"/>
</g>
</svg>
